PathFileType	4	(X/Y/Z)	Walk4.trc
DataRate	CameraRate	NumFrames	NumMarkers	Units	OrigDataRate	OrigDataStartFrame	OrigNumFrames
200.000000	200.000000	6	61	mm	200.000000	536	718
Frame#	Times		RCAR		LToe		LLFC		RWRU		RACR1		RFA1		RFHD		LUA1		LFA1		LCAR		RWRR		LElbow		STRN		RLFC		LACR1		LWRU		RTH3		RTB2		LWRR		C7		LFHD		RToe		RMFC		RMT1		RTH2		RMT5		LTH3		LPSI		RPSI		RTB3		LTH4		LTB1		RASI		RCAL		RTB1		LTB3		LTB4		CLAV		LTH2		LTH1		LMT5		RTB4		LTB2		LMT1		RLMAL		RMMAL		LBHD		LMFC		RBHD		RUA1		RElbow		LLMAL		RBack		LASI		RTH1		RTH4		T10		LCAL		LElbowM		LMMAL		RElbowM
			X1	Y1	Z1	X2	Y2	Z2	X3	Y3	Z3	X4	Y4	Z4	X5	Y5	Z5	X6	Y6	Z6	X7	Y7	Z7	X8	Y8	Z8	X9	Y9	Z9	X10	Y10	Z10	X11	Y11	Z11	X12	Y12	Z12	X13	Y13	Z13	X14	Y14	Z14	X15	Y15	Z15	X16	Y16	Z16	X17	Y17	Z17	X18	Y18	Z18	X19	Y19	Z19	X20	Y20	Z20	X21	Y21	Z21	X22	Y22	Z22	X23	Y23	Z23	X24	Y24	Z24	X25	Y25	Z25	X26	Y26	Z26	X27	Y27	Z27	X28	Y28	Z28	X29	Y29	Z29	X30	Y30	Z30	X31	Y31	Z31	X32	Y32	Z32	X33	Y33	Z33	X34	Y34	Z34	X35	Y35	Z35	X36	Y36	Z36	X37	Y37	Z37	X38	Y38	Z38	X39	Y39	Z39	X40	Y40	Z40	X41	Y41	Z41	X42	Y42	Z42	X43	Y43	Z43	X44	Y44	Z44	X45	Y45	Z45	X46	Y46	Z46	X47	Y47	Z47	X48	Y48	Z48	X49	Y49	Z49	X50	Y50	Z50	X51	Y51	Z51	X52	Y52	Z52	X53	Y53	Z53	X54	Y54	Z54	X55	Y55	Z55	X56	Y56	Z56	X57	Y57	Z57	X58	Y58	Z58	X59	Y59	Z59	X60	Y60	Z60	X61	Y61	Z61

536	2.68	448.27	888.68	401.84	240.58	59.43	-56.695	355.99	531.98	-149.55	444.81	927.14	337.64	347.17	1515.6	247.43	380.91	1058	373.18	484.35	1691.7	123.56	258.19	1371.8	-203.05	297.73	1075.9	-272.74	338.36	910	-292.74	383.21	915.48	400.58	215.94	1206.7	-255.12	430.06	1309.6	35.546	289.39	514.61	221.58	281.41	1551.1	-115	267.54	948.65	-293.26	273.35	653.24	233.82	330.54	279.9	182.96	342.86	947.34	-235.54	211.91	1574.4	91.638	476.95	1694.8	18.546	476.77	46.27	92.879	276.94	510.14	72.786	425.64	56.502	83.394	320.46	744.29	251.77	389.52	29.918	178	348.21	658.56	-169.41	128.16	1085.6	0.41416	137.21	1082.9	108.92	320.14	200.74	112.82	321.66	741.38	-174.14	336.11	393.53	-48.128	363.98	1055.8	201.68	206.74	40.168	109.73	336.5	371.63	131.18	217.45	276.72	-18.083	274.45	336.93	-32.648	371.65	1482.1	44.256	375.42	760.77	-177.75	294.85	824.5	-177.12	144.47	109.17	-99.898	328.24	285.7	121.68	273.84	322.09	-94.194	202.62	93.374	-29.271	266.92	72.908	150.49	294.54	107.69	60.381	309.44	1709	10.497	412.68	519.44	-21.503	316.09	1709	152.83	328.57	1336.8	321.53	284.15	1179.4	370.82	143.06	215.21	33.232	170.28	1459	209.66	340.76	1046.1	-117.84	249.44	822.86	253.47	260.76	735.45	242.09	151.88	1219.4	57.377	31.967	229.52	2.0678	187.77	1175.7	-169.61	87.105	212.43	-55.633	249.77	1151.9	283.34
537	2.685	455.72	889.66	401.98	257.07	58.927	-56.505	364.86	532.69	-149.81	452	928.07	337.76	351.98	1515.9	247.56	387.54	1058.6	373.36	489.2	1691.7	123.59	261.9	1371.8	-202.9	300.41	1075.9	-273.26	340.76	910.3	-293.95	390.52	916.13	400.76	219.05	1206.9	-254.89	434.66	1309.6	35.907	290.69	514.58	221.8	285.85	1551	-114.9	269.77	948.63	-293.44	275.46	653.37	234.07	331.11	279.73	183.22	345.72	947.32	-236.62	216.62	1574.6	91.878	481.75	1694.7	18.587	476.8	46.12	92.945	278.78	510.17	72.984	425.69	56.419	83.442	323.07	744.18	252.1	389.5	29.853	178.11	355.82	659.63	-169.54	132.76	1085.6	0.29022	141.66	1082.9	108.83	320.67	200.67	113.02	328.52	742.23	-174.26	346.58	394.21	-48.02	368.08	1055.9	202.6	206.77	40.239	109.68	337.52	371.45	131.5	230.57	275.4	-17.903	285.95	336.59	-32.583	376.31	1482.2	44.394	382.12	762.1	-177.93	301.03	825.12	-177.11	160.06	106.83	-99.818	328.98	285.55	121.93	285.78	321.54	-94.008	218.4	92.189	-29.127	266.97	72.963	150.41	294.7	107.71	60.403	314.25	1709.1	10.607	421.07	521.14	-21.48	320.97	1709.1	152.93	334.05	1337.1	321.7	290.23	1179.6	371.16	156.35	212.86	33.234	175.07	1459.1	209.99	345.84	1046.3	-117.08	252.5	823.1	253.67	263.37	735.64	242.26	156.49	1219.5	57.56	45.083	225.03	1.8825	191.29	1175.9	-169.27	100.67	208.93	-55.744	255.89	1151.9	283.69
538	2.69	463.13	890.6	402.11	273.7	58.387	-56.471	373.64	533.36	-150.01	459.16	928.95	337.87	356.76	1516.2	247.68	394.15	1059.1	373.52	494.04	1691.6	123.62	265.62	1371.7	-202.75	303.1	1075.9	-273.78	343.16	910.57	-295.17	397.81	916.74	400.94	222.18	1207	-254.64	439.26	1309.6	36.269	292.04	514.54	222	290.28	1551	-114.82	272.02	948.55	-293.58	277.62	653.49	234.31	331.71	279.54	183.47	348.62	947.29	-237.73	221.31	1574.7	92.098	486.54	1694.6	18.621	476.82	45.964	93.006	280.65	510.19	73.171	425.75	56.33	83.481	325.67	744.07	252.42	389.47	29.791	178.22	363.41	660.67	-169.67	137.37	1085.6	0.14124	146.1	1083	108.7	321.22	200.59	113.21	335.4	743.05	-174.39	357.02	394.78	-47.924	372.17	1056	203.47	206.81	40.318	109.64	338.57	371.25	131.8	243.75	273.94	-17.79	297.44	336.13	-32.55	380.95	1482.2	44.525	388.84	763.38	-178.07	307.24	825.71	-177.12	175.81	104.43	-99.855	329.75	285.39	122.16	297.72	320.92	-93.867	234.32	90.926	-29.119	267.03	73.018	150.34	294.86	107.73	60.421	319.05	1709.1	10.703	429.3	522.77	-21.415	325.84	1709.3	153.03	339.47	1337.4	321.87	296.28	1179.7	371.47	169.76	210.33	33.158	179.84	1459.2	210.3	350.92	1046.5	-116.34	255.59	823.32	253.86	266.01	735.82	242.43	161.09	1219.6	57.716	58.346	220.32	1.6408	194.84	1176	-168.92	114.36	205.28	-55.92	262	1151.9	284.01
539	2.695	470.53	891.51	402.23	290.44	57.82	-56.581	382.32	533.99	-150.15	466.29	929.8	337.97	361.51	1516.4	247.79	400.73	1059.6	373.66	498.85	1691.6	123.64	269.36	1371.6	-202.6	305.81	1075.8	-274.28	345.56	910.8	-296.38	405.07	917.31	401.09	225.31	1207	-254.38	443.86	1309.6	36.631	293.42	514.49	222.19	294.72	1550.9	-114.76	274.28	948.43	-293.68	279.81	653.6	234.54	332.33	279.35	183.7	351.55	947.22	-238.85	225.98	1574.8	92.295	491.32	1694.4	18.65	476.85	45.799	93.064	282.55	510.21	73.346	425.82	56.237	83.511	328.29	743.96	252.73	389.45	29.731	178.33	370.97	661.68	-169.78	141.99	1085.6	-0.029362	150.55	1083	108.54	321.77	200.5	113.37	342.28	743.84	-174.54	367.42	395.26	-47.844	376.25	1056.1	204.27	206.87	40.406	109.59	339.66	371.05	132.08	256.95	272.35	-17.753	308.94	335.56	-32.554	385.58	1482.2	44.649	395.58	764.62	-178.15	313.49	826.29	-177.13	191.69	101.96	-100.01	330.53	285.21	122.37	309.67	320.24	-93.774	250.37	89.596	-29.242	267.1	73.072	150.26	295.02	107.74	60.433	323.83	1709.1	10.785	437.37	524.34	-21.309	330.68	1709.3	153.11	344.85	1337.6	322.04	302.3	1179.7	371.75	183.29	207.64	32.996	184.58	1459.2	210.58	356.01	1046.6	-115.62	258.71	823.52	254.06	268.69	735.98	242.59	165.7	1219.7	57.848	71.756	215.41	1.3321	198.4	1176.1	-168.56	128.17	201.48	-56.167	268.11	1151.7	284.29
540	2.7	477.89	892.38	402.34	307.3	57.234	-56.826	390.89	534.57	-150.23	473.41	930.62	338.05	366.23	1516.6	247.89	407.28	1060.1	373.79	503.64	1691.4	123.66	273.12	1371.5	-202.45	308.53	1075.7	-274.77	347.97	910.99	-297.58	412.3	917.85	401.23	228.47	1207.1	-254.1	448.47	1309.5	36.991	294.85	514.43	222.35	299.16	1550.8	-114.71	276.57	948.26	-293.75	282.06	653.69	234.77	332.98	279.14	183.91	354.52	947.13	-239.99	230.64	1574.8	92.47	496.08	1694.2	18.674	476.89	45.627	93.119	284.48	510.23	73.508	425.9	56.139	83.533	330.92	743.83	253.02	389.43	29.674	178.44	378.51	662.67	-169.89	146.62	1085.5	-0.2185	154.99	1082.9	108.36	322.32	200.38	113.51	349.16	744.6	-174.68	377.8	395.63	-47.782	380.33	1056.2	205.02	206.93	40.501	109.55	340.77	370.83	132.34	270.12	270.64	-17.799	320.44	334.88	-32.596	390.21	1482.2	44.767	402.34	765.82	-178.19	319.77	826.85	-177.17	207.7	99.452	-100.29	331.34	285.03	122.55	321.6	319.5	-93.732	266.55	88.21	-29.489	267.17	73.122	150.17	295.19	107.75	60.44	328.59	1709	10.851	445.3	525.83	-21.165	335.5	1709.4	153.18	350.17	1337.8	322.22	308.3	1179.8	372.02	196.93	204.79	32.746	189.3	1459.3	210.84	361.1	1046.7	-114.94	261.86	823.71	254.24	271.39	736.12	242.76	170.29	1219.7	57.955	85.314	210.33	0.94723	201.99	1176.1	-168.18	142.1	197.55	-56.492	274.22	1151.6	284.54
541	2.705	485.22	893.22	402.44	324.27	56.637	-57.192	399.35	535.11	-150.25	480.5	931.39	338.11	370.93	1516.8	247.98	413.8	1060.5	373.91	508.41	1691.3	123.67	276.9	1371.4	-202.31	311.27	1075.6	-275.24	350.39	911.14	-298.78	419.5	918.34	401.35	231.65	1207.1	-253.82	453.07	1309.4	37.349	296.33	514.37	222.5	303.6	1550.6	-114.68	278.89	948.04	-293.78	284.34	653.77	234.98	333.65	278.92	184.11	357.52	947	-241.12	235.29	1574.8	92.622	500.83	1694	18.695	476.94	45.444	93.173	286.44	510.25	73.656	425.98	56.038	83.547	333.59	743.69	253.28	389.41	29.621	178.54	386.02	663.61	-169.99	151.25	1085.3	-0.42341	159.43	1082.9	108.15	322.88	200.25	113.64	356.05	745.34	-174.84	388.14	395.91	-47.736	384.4	1056.3	205.69	207.01	40.603	109.5	341.91	370.6	132.58	283.21	268.84	-17.932	331.94	334.1	-32.675	394.83	1482.2	44.877	409.11	766.98	-178.17	326.08	827.38	-177.22	223.85	96.911	-100.68	332.18	284.84	122.71	333.54	318.72	-93.741	282.83	86.78	-29.855	267.26	73.169	150.08	295.35	107.75	60.441	333.35	1709	10.903	453.08	527.24	-20.984	340.3	1709.4	153.24	355.46	1337.9	322.4	314.27	1179.7	372.26	210.68	201.79	32.404	194	1459.2	211.08	366.19	1046.7	-114.3	265.03	823.87	254.43	274.13	736.24	242.93	174.89	1219.7	58.036	99.018	205.08	0.47784	205.61	1176.1	-167.79	156.16	193.51	-56.897	280.31	1151.4	284.76
